<?xml version="1.0" encoding="UTF-8" standalone="no"?>
<!-- Created with Inkscape (http://www.inkscape.org/) -->

<svg
   xmlns:dc="http://purl.org/dc/elements/1.1/"
   xmlns:cc="http://creativecommons.org/ns#"
   xmlns:rdf="http://www.w3.org/1999/02/22-rdf-syntax-ns#"
   xmlns:svg="http://www.w3.org/2000/svg"
   xmlns="http://www.w3.org/2000/svg"
   version="1.1"
   width="156"
   height="156"
   id="svg2984">
  <title
     id="title3789">lib_jquery_unveil</title>
  <defs
     id="defs2986" />
  <metadata
     id="metadata2989">
    <rdf:RDF>
      <cc:Work
         rdf:about="">
        <dc:format>image/svg+xml</dc:format>
        <dc:type
           rdf:resource="http://purl.org/dc/dcmitype/StillImage" />
        <dc:title>lib_jquery_unveil</dc:title>
        <dc:creator>
          <cc:Agent>
            <dc:title>stephan.kellermayr@gmail.com</dc:title>
          </cc:Agent>
        </dc:creator>
        <dc:rights>
          <cc:Agent>
            <dc:title>sonority.at</dc:title>
          </cc:Agent>
        </dc:rights>
        <dc:date>04.12.2015</dc:date>
      </cc:Work>
    </rdf:RDF>
  </metadata>
  <g
     transform="translate(-93.428574,-345.79375)"
     id="layer1">
    <rect
       width="156"
       height="156"
       x="93.428574"
       y="345.79376"
       id="background"
       style="fill:#0868ac;fill-opacity:1" />
    <path
       d="m 104.15625,34.8125 c -18.236874,0 -25.203388,8.785248 -27.3125,26.4375 L 62.28125,36 28.8125,36 l 0,14.15625 17.03125,29.5 0,9.875 c 0,12.47999 -1.81501,16.90625 -9.375,16.90625 -3.83999,0 -9.35875,-0.5875 -12.71875,-1.1875 l 0,14.28125 L 44.8125,156 156,156 156,95.90625 127.59375,46.71875 c -0.10777,-0.212783 -0.23144,-0.41793 -0.34375,-0.625 L 127,45.65625 C 122.88337,38.423627 115.83674,34.8125 104.15625,34.8125 z"
       transform="translate(93.428574,345.79375)"
       id="shadow"
       style="color:#000000;fill:#000000;fill-opacity:0.39215686;fill-rule:nonzero;stroke:none;stroke-width:0.03543307;marker:none;visibility:visible;display:inline;overflow:visible;enable-background:accumulate" />
    <path
       d="m 225.66951,480.67376 0,-14.88 -11.88,-2.76 c 9.23999,-6.23999 11.88,-19.68002 11.88,-40.2 0,-28.19997 -5.04003,-42.24 -28.08,-42.24 -23.03998,0 -28.08,14.04003 -28.08,42.24 0,27.59997 3.72002,42.24 23.76,43.92 l 32.4,13.92 m -16.68,-57.24 c 0,24.23998 -2.88001,30.6 -11.4,30.6 -8.52,0 -11.4,-6.36002 -11.4,-30.6 0,-24.59997 2.88,-29.88 11.4,-29.88 8.51999,0 11.4,5.28003 11.4,29.88 m -53.28188,11.04 0,-52.68 -33.48,0 0,14.16 17.04,0 0,39.36 c 0,12.47999 -1.80001,16.92 -9.36,16.92 -3.83999,0 -9.36,-0.6 -12.72,-1.2 l 0,14.28 c 3.84,0.84 10.68001,1.68 14.64,1.68 18.71998,0 23.88,-7.68002 23.88,-32.52"
       id="icon"
       style="font-size:120px;font-style:normal;font-weight:normal;text-align:center;line-height:125%;letter-spacing:0px;word-spacing:0px;text-anchor:middle;fill:#ffffff;fill-opacity:1;stroke:none;font-family:Share-Bold;-inkscape-font-specification:Share-Bold" />
  </g>
</svg>
